<svg xmlns="http://www.w3.org/2000/svg" xmlns:xlink="http://www.w3.org/1999/xlink" version="1.1" x="0px" y="0px" viewBox="0 0 100 125" enable-background="new 0 0 100 100" xml:space="preserve"><path d="M71.804,59.599c-1.247-0.821-2.362-1.57-3.368-2.245c-1.483-0.996-2.734-1.835-3.823-2.518  c0.938-2.009,1.585-4.053,1.839-5.991c0.058-0.447,0.096-0.887,0.113-1.318c0.208-0.099,0.413-0.206,0.61-0.327  c3.237-1.988,4.616-3.636,3.214-6.999l12.372-8.661l-2.864,0.796l15.278-10.981l-14.801,7.48l1.909-2.387l-8.753,5.252v-1.75  l-6.583,4.681c-0.641-0.709-1.262-1.067-2.054-1.067c-1.092,0-2.409,0.692-4.774,2.147c-0.275,0.169-0.526,0.361-0.767,0.564  c-3.533-2.067-7.748-3.231-12.028-3.231c-4.038,0-7.83,1.018-10.967,2.944c-0.312,0.191-0.658,0.419-1.036,0.679  c-1.506,0.033-2.984,0.188-4.328,0.443c-0.275-0.181-0.556-0.366-0.848-0.559c-4.945-3.275-11.855-6.799-15.343-6.799  c-0.836,0-1.452,0.207-1.831,0.614c-0.307,0.33-0.452,0.744-0.432,1.23c0.099,2.396,4.232,6.361,9.635,11.294  c-2.915,3.525-5.942,8.37-6.558,12.042C11.044,60.095,5.532,67.213,4.889,72.14c-0.219,1.679,0.135,3.02,1.052,3.984  c1.465,1.542,4.169,2.323,8.035,2.323c0.001,0,0,0,0.001,0c11.406,0,31.349-7.013,39.31-11.292  c2.794,1.437,6.716,3.179,12.054,5.499c7.542,3.278,14.109,5.991,18.09,5.991l0,0c1.597,0,2.722-0.458,3.343-1.361  c0.401-0.584,0.52-1.316,0.352-2.177C86.293,70.843,78.6,64.079,71.804,59.599z M60.535,36.385c2.188-1.346,3.463-2.029,4.358-2.029  c1.169,0,1.945,1.264,3.646,4.032l0.028,0.046c2.683,4.37,1.944,5.786-1.808,8.089c-0.062,0.039-0.128,0.073-0.192,0.109  c-0.072-2.688-0.979-5.012-2.68-6.801c-1.122-1.18-2.415-2.223-3.825-3.122C60.213,36.596,60.37,36.487,60.535,36.385z   M13.192,31.567c-0.013-0.31,0.071-0.559,0.258-0.759c0.25-0.269,0.705-0.405,1.353-0.405c2.874,0,9.035,2.751,14.983,6.69  c0.105,0.07,0.206,0.136,0.309,0.204c-1.423,0.333-2.648,0.781-3.519,1.316c-1.023,0.628-2.469,2.006-3.98,3.774  C18.641,38.778,13.287,33.876,13.192,31.567z M13.976,77.734c-3.663,0-6.192-0.708-7.518-2.103  c-0.762-0.801-1.052-1.944-0.862-3.399c0.53-4.061,4.697-10.074,9.909-16.051c0,1.097,0.294,1.98,0.883,2.629  c0.925,1.019,2.638,1.534,5.09,1.534c0,0,0,0,0,0c6.525,0,16.426-3.523,19.426-5.366c2.615-1.605,5.803-5.914,6.396-10.076  c0.303-2.13-0.148-3.929-1.305-5.203c-1.669-1.836-5.067-2.927-9.383-3.031c0.039-0.024,0.08-0.051,0.118-0.074  c3.025-1.856,6.688-2.838,10.594-2.838c6.136,0,12.135,2.455,16.046,6.568c1.998,2.102,2.818,5.016,2.372,8.427  c-0.242,1.847-0.852,3.793-1.738,5.709c-2.043-1.235-3.502-1.855-4.933-1.855c-1.769,0-3.398,0.948-5.786,2.697  c-4.164,3.049-6.108,4.835-5.896,6.737c0.167,1.499,1.647,2.85,5.132,4.714C44.38,71.012,25.085,77.734,13.976,77.734z   M86.12,76.835c-0.472,0.685-1.351,1.018-2.689,1.018l0,0c-3.823,0-10.589-2.803-17.773-5.926  c-11.616-5.048-17.212-7.581-17.479-9.975c-0.168-1.506,1.746-3.206,5.576-6.01c2.253-1.649,3.768-2.544,5.318-2.544  c2.048,0,4.345,1.542,8.922,4.614c1.008,0.676,2.124,1.425,3.373,2.248c8.015,5.284,14.314,11.592,14.979,14.998  C86.473,75.903,86.396,76.433,86.12,76.835z"/><text x="0" y="115" fill="#000000" font-size="5px" font-weight="bold" font-family="'Helvetica Neue', Helvetica, Arial-Unicode, Arial, Sans-serif">Created by Blaise Sewell</text><text x="0" y="120" fill="#000000" font-size="5px" font-weight="bold" font-family="'Helvetica Neue', Helvetica, Arial-Unicode, Arial, Sans-serif">from the Noun Project</text></svg>